<?xml version="1.0" encoding="UTF-8" standalone="no"?>
<svg width="154px" height="52px" viewBox="0 0 154 52" version="1.1" xmlns="http://www.w3.org/2000/svg" xmlns:xlink="http://www.w3.org/1999/xlink" xmlns:sketch="http://www.bohemiancoding.com/sketch/ns">
    <!-- Generator: Sketch 3.1.1 (8761) - http://www.bohemiancoding.com/sketch -->
    <title>appstore</title>
    <desc>Created with Sketch.</desc>
    <defs></defs>
    <g id="Page-1" stroke="none" stroke-width="1" fill="none" fill-rule="evenodd" sketch:type="MSPage">
        <g id="appstore" sketch:type="MSLayerGroup" transform="translate(1.000000, 1.000000)">
            <g id="Page-1">
                <g id="1c-map-city">
                    <g id="appstore">
                        <rect id="container" stroke="#FFFFFF" opacity="0.5" sketch:type="MSShapeGroup" x="0" y="0" width="152" height="50" rx="5"></rect>
                        <g id="Available-on-the" transform="translate(45.000000, 9.000000)" font-size="11.0170175" font-family="Helvetica Neue" fill="#FFFFFF" sketch:type="MSTextLayer" font-weight="260">
                            <text>
                                <tspan x="0" y="10.5384615">Available on the</tspan>
                            </text>
                        </g>
                        <g id="App-Store" transform="translate(45.000000, 23.000000)" font-size="16.7785046" font-family="Helvetica Neue" fill="#FFFFFF" sketch:type="MSTextLayer" font-weight="420">
                            <text>
                                <tspan x="0" y="15.8461538">App Store</tspan>
                            </text>
                        </g>
                        <path d="M12,8.94256389 L12,40.0844631 C12,41.6946697 13.2174387,43 14.7222368,43 L28.2777632,43 C29.7812131,43 31,41.697473 31,40.0844631 L31,9.91553686 C31,8.30533031 29.7825613,7 28.2777632,7 L14.7222368,7 C13.2187869,7 12,7.32955406 12,8.94256389 L12,8.94256389 Z M14,12 L14,38 L29,38 L29,12 L14,12 L14,12 Z M21.4807692,42 C22.3091964,42 22.9807692,41.3284271 22.9807692,40.5 C22.9807692,39.6715729 22.3091964,39 21.4807692,39 C20.6523421,39 19.9807692,39.6715729 19.9807692,40.5 C19.9807692,41.3284271 20.6523421,42 21.4807692,42 L21.4807692,42 L21.4807692,42 Z M19,9.5 C19,9.77614237 19.2148438,10 19.4976988,10 L23.5023012,10 C23.7771727,10 24,9.76806641 24,9.5 C24,9.22385763 23.7851562,9 23.5023012,9 L19.4976988,9 C19.2228273,9 19,9.23193359 19,9.5 L19,9.5 Z" id="iPhone" fill="#FFFFFF" sketch:type="MSShapeGroup"></path>
                    </g>
                </g>
            </g>
        </g>
    </g>
</svg>